<svg xmlns="http://www.w3.org/2000/svg" width="813" height="813" viewBox="0 0 813 813" version="1.1"><path d="M 281.500 86.163 C 267.763 87.682, 257.645 93.323, 245.335 106.328 L 237.306 114.809 233.653 125.806 L 230 136.804 230 166.829 C 230 201.420, 230.798 209.092, 235.685 221.500 C 245.802 247.183, 263.489 262.460, 292 270.141 C 296.125 271.252, 300.767 272.688, 302.316 273.331 L 305.132 274.500 304.571 277.349 C 304.263 278.916, 303.107 287.016, 302.002 295.349 C 293.964 355.998, 292.291 368.042, 291.845 368.489 C 291.567 368.766, 286.078 369.422, 279.646 369.947 C 255.494 371.915, 236.819 379.330, 218.400 394.264 C 206.135 404.209, 198.316 415.412, 193.808 429.500 L 191.569 436.500 191.534 481 L 191.500 525.500 279 525.757 L 366.500 526.013 366.741 610.757 L 366.981 695.500 368.082 699.500 C 369.642 705.176, 375.572 713.513, 382.050 719.141 L 387.599 723.963 395.550 725.966 C 405.682 728.519, 411.136 728.511, 419.491 725.930 L 426.193 723.860 434.390 715.990 L 442.588 708.120 444.804 701.810 L 447.020 695.500 447.010 610.755 L 447 526.011 534.250 525.755 L 621.500 525.500 621.792 483 L 622.084 440.500 620.415 433.500 C 612.019 398.270, 575.744 372.422, 530.364 369.335 L 521.228 368.713 520.708 364.607 C 520.422 362.348, 519.283 353.975, 518.177 346 C 517.071 338.025, 515.902 329.475, 515.581 327 C 512.627 304.291, 509.282 280.488, 508.480 276.477 L 508.076 274.455 510.788 273.311 C 512.280 272.683, 515.075 271.850, 517 271.461 C 547.638 265.270, 570.697 244.643, 580.117 215 L 582.500 207.500 582.500 170 L 582.500 132.500 580.636 127 C 574.128 107.797, 557.562 92.412, 538 87.403 L 531.500 85.738 409.500 85.619 C 342.400 85.554, 284.800 85.798, 281.500 86.163" stroke="none" fill="#ffffff" fill-rule="evenodd"/></svg>